<svg width="40" height="40" viewBox="0 0 40 40" fill="none" xmlns="http://www.w3.org/2000/svg">
<mask id="mask0_1_89" style="mask-type:alpha" maskUnits="userSpaceOnUse" x="0" y="0" width="40" height="40">
<rect width="40" height="40" fill="#D9D9D9"/>
</mask>
<g mask="url(#mask0_1_89)">
<path d="M34.583 18.292V31.958C34.583 32.6807 34.326 33.2987 33.812 33.812C33.2987 34.326 32.6947 34.583 32 34.583H8C7.278 34.583 6.667 34.326 6.167 33.812C5.667 33.2987 5.417 32.6807 5.417 31.958V18.25C4.667 17.6387 4.146 16.8817 3.854 15.979C3.56267 15.0763 3.56967 14.139 3.875 13.167L5.583 7.70799C5.80567 6.98599 6.18067 6.42366 6.708 6.02099C7.236 5.61833 7.861 5.41699 8.583 5.41699H31.292C32.042 5.41699 32.6877 5.61133 33.229 5.99999C33.771 6.38866 34.153 6.94433 34.375 7.66699L36.125 13.167C36.4303 14.139 36.4373 15.0833 36.146 16C35.854 16.9167 35.333 17.6807 34.583 18.292ZM23.708 17.292C24.6527 17.292 25.396 17.0073 25.938 16.438C26.4793 15.868 26.6943 15.236 26.583 14.542L25.5 7.49999H21.042V14.458C21.042 15.208 21.2987 15.868 21.812 16.438C22.326 17.0073 22.958 17.292 23.708 17.292ZM16.083 17.292C16.9163 17.292 17.604 17.014 18.146 16.458C18.6873 15.9027 18.958 15.236 18.958 14.458V7.49999H14.5L13.417 14.625C13.3337 15.2363 13.542 15.8337 14.042 16.417C14.542 17.0003 15.2223 17.292 16.083 17.292ZM8.583 17.292C9.27767 17.292 9.875 17.0487 10.375 16.562C10.875 16.076 11.1807 15.486 11.292 14.792L12.333 7.49999H8.333C8.16633 7.49999 8.02767 7.54166 7.917 7.62499C7.80567 7.70833 7.72233 7.83333 7.667 7.99999L5.958 13.667C5.68067 14.5277 5.792 15.347 6.292 16.125C6.792 16.903 7.55567 17.292 8.583 17.292ZM31.417 17.292C32.361 17.292 33.111 16.917 33.667 16.167C34.2223 15.417 34.3473 14.5837 34.042 13.667L32.292 7.95799C32.236 7.79133 32.1527 7.67333 32.042 7.60399C31.9307 7.53466 31.7917 7.49999 31.625 7.49999H27.667L28.75 14.792C28.8333 15.486 29.125 16.076 29.625 16.562C30.125 17.0487 30.7223 17.292 31.417 17.292ZM8 32.5H32C32.1387 32.5 32.2567 32.4513 32.354 32.354C32.4513 32.2567 32.5 32.1247 32.5 31.958V19.25C32.3887 19.3053 32.236 19.34 32.042 19.354C31.8473 19.368 31.639 19.375 31.417 19.375C30.6943 19.375 30.0347 19.2293 29.438 18.938C28.8407 18.646 28.264 18.1807 27.708 17.542C27.264 18.0973 26.7153 18.5417 26.062 18.875C25.4093 19.2083 24.6527 19.375 23.792 19.375C23.042 19.375 22.3683 19.236 21.771 18.958C21.1737 18.6807 20.5833 18.2503 20 17.667C19.5 18.2223 18.9237 18.646 18.271 18.938C17.6183 19.2293 16.9447 19.375 16.25 19.375C15.4447 19.375 14.7153 19.236 14.062 18.958C13.4093 18.6807 12.833 18.2087 12.333 17.542C11.611 18.264 10.9307 18.75 10.292 19C9.65267 19.25 9.083 19.375 8.583 19.375C8.361 19.375 8.15967 19.368 7.979 19.354C7.79833 19.34 7.63867 19.3053 7.5 19.25V31.958C7.5 32.1247 7.54867 32.2567 7.646 32.354C7.74333 32.4513 7.86133 32.5 8 32.5Z" fill="#312ECB"/>
</g>
</svg>
